<?xml version="1.0" encoding="UTF-8" standalone="no"?>
<svg id="Layer_1" style="enable-background:new 0 0 711.1 729.1" xmlns="http://www.w3.org/2000/svg" xml:space="preserve" viewBox="0 0 711.1 729.1" version="1.1" y="0px" x="0px" xmlns:xlink="http://www.w3.org/1999/xlink">
<style type="text/css">
	.st0{fill:#31ABE2;}
	.st1{fill:#BDD631;}
	.st2{fill:#ED1C24;}
	.st3{fill:#92C83E;}
	.st4{fill:#ED208A;}
	.st5{fill:#8F52A0;}
	.st6{fill:#6FCCDD;}
	.st7{fill:#FDB515;}
	.st8{fill:#B1529F;}
	.st9{fill:#EDEDED;}
	.st10{fill:url(#SVGID_1_);}
	.st11{fill:#FFFFFF;}
	.st12{fill:#16AA4B;}
	.st13{fill:#8AC640;}
	.st14{fill:#ECDB14;}
	.st15{fill:#FBA919;}
	.st16{fill:#ED1F24;}
	.st17{fill:#EF4223;}
	.st18{fill:#F26822;}
	.st19{fill:#F57E20;}
	.st20{fill:url(#SVGID_2_);}
	.st21{opacity:0.13;fill:#FFFFFF;}
	.st22{opacity:0.17;fill:#D1D2D1;}
	.st23{fill:none;stroke:#9D1C20;stroke-width:7;stroke-miterlimit:10;}
	.st24{fill:#9D1C20;}
	.st25{fill:url(#SVGID_3_);}
	.st26{fill:url(#SVGID_4_);}
</style>
			<path class="st0" d="m346 350.9l-196.3-234c57.3-48.1 121.4-71.4 196.3-71.4v305.4z"/>
			<path class="st1" d="m346 350.9l-270.9-47.8c11.7-66.4 42.4-119.6 94.1-162.9l176.8 210.7z"/>
			<path class="st2" d="m349.9 340.6l-268.7 169c-38-71.8-50.1-146.1-36.8-227.7l305.5 58.7z"/>
			<path class="st3" d="m346 350.9l-94.1 258.5c-63.4-23.1-110.4-62.5-144.1-120.9l238.2-137.6z"/>
			<path class="st4" d="m346 305.9l124.8 342.8c-84.1 30.6-165.5 30.6-249.6 0l124.8-342.8z"/>
			<path class="st5" d="m346 350.9l238.2 137.5c-33.7 58.4-80.8 97.9-144.1 120.9l-94.1-258.4z"/>
			<path class="st6" d="m366.4 357.6l230.6-40.7c10 56.6 0.9 108-27.8 157.8l-202.8-117.1z"/>
			<path class="st7" d="m323.3 360.7l231.6-282.7c67.7 58.2 107.9 129.5 123.2 218.6l-354.8 64.1z"/>
			<path class="st8" d="m346 350.9v-275c67.4 0 125.1 21 176.8 64.4l-176.8 210.6z"/>
<circle cy="355.8" cx="351.7" r="285.1" class="st9"/>
<radialGradient id="SVGID_1_" gradientUnits="userSpaceOnUse" cy="355.84" cx="353.73" r="277.84">
	<stop stop-color="#8F8F8F" offset=".92"/>
	<stop stop-color="#CFCFCF" offset=".955"/>
	<stop stop-color="#C6C6C6" offset=".9654"/>
	<stop stop-color="#ADAEAF" offset=".9826"/>
	<stop stop-color="#8D8F91" offset="1"/>
</radialGradient>
<circle cy="355.8" cx="353.7" r="277.8" class="st10"/>
<circle cy="355.8" cx="351.7" r="256.6" class="st11"/>
				<path class="st12" d="m352.9 356.4l-151.2-208.1c46-33.4 94.4-49.1 151.2-49.1v257.2z"/>
				<path class="st13" d="m352.9 356.4l-244.6-79.4c17.6-54 47.5-95.2 93.4-128.6l151.2 208z"/>
				<path class="st14" d="m352.9 356.4l-244.6 79.5c-17.6-54-17.6-104.9 0-159l244.6 79.5z"/>
				<path class="st15" d="m352.9 356.4l-151.2 208.1c-46-33.4-75.9-74.6-93.4-128.6l244.6-79.5z"/>
				<path class="st16" d="m352.9 356.4l244.6 79.5c-17.6 54-47.5 95.2-93.4 128.6l-151.2-208.1z"/>
				<path class="st17" d="m352.9 356.4l244.6-79.4c17.6 54 17.6 104.9 0 159l-244.6-79.6z"/>
				<path class="st18" d="m352.9 356.4l151.2-208.1c46 33.4 75.9 74.6 93.4 128.6l-244.6 79.5z"/>
				<path class="st19" d="m352.9 356.4v-257.2c56.8 0 105.2 15.7 151.2 49.1l-151.2 208.1z"/>
	<circle cy="357" cx="352.9" r="161.5" class="st11"/>
<radialGradient id="SVGID_2_" gradientUnits="userSpaceOnUse" cy="355.84" cx="353.5" r="256.62">
	<stop stop-opacity="0" offset=".875"/>
	<stop stop-opacity=".6" offset="1"/>
</radialGradient>
<circle cy="355.8" cx="353.5" r="256.6" class="st20"/>
<path class="st21" d="m428.5 110.9l0.2-0.5c-23.8-7.3-49-11.2-75.2-11.2-141.7 0-256.6 114.9-256.6 256.6 0 84.7 41 159.7 104.2 206.5-31.3-114.9-76.4-169.1-16.9-309.9 44-104.1 244.3-141.5 244.3-141.5z"/>
<ellipse rx="49.6" ry="36.1" transform="matrix(.4899 -.8718 .8718 .4899 -142.22 390.76)" cy="316.9" cx="262.8" class="st22"/>
<ellipse rx="16.2" ry="11.8" transform="matrix(.4899 -.8718 .8718 .4899 -206.86 417.62)" cy="385.6" cx="253.4" class="st22"/>
	<line y1="323.5" x2="293.7" x1="544.4" y2="373.2" class="st23"/>
	<circle cy="360.4" cx="350.6" r="34.8" class="st24"/>
			<radialGradient id="SVGID_3_" gradientUnits="userSpaceOnUse" cy="484.02" cx="210.03" gradientTransform="matrix(.1942 .981 -.981 .1942 784.59 60.385)" r="28.388">
			<stop stop-color="#9F181B" offset="0"/>
			<stop stop-color="#9D171A" offset=".022009"/>
			<stop stop-color="#840709" offset=".3417"/>
			<stop stop-color="#720000" offset=".6226"/>
			<stop stop-color="#600" offset=".8516"/>
			<stop stop-color="#620000" offset="1"/>
		</radialGradient>
		<circle cy="360.4" cx="350.6" r="28.4" class="st25"/>
			<radialGradient id="SVGID_4_" gradientUnits="userSpaceOnUse" cy="484.02" cx="210.03" gradientTransform="matrix(.1942 .981 -.981 .1942 784.59 60.385)" r="6.3083">
			<stop stop-color="#AF1116" offset=".025"/>
			<stop stop-color="#9F181B" offset=".995"/>
		</radialGradient>
		<circle cy="360.4" cx="350.6" r="6.3" class="st26"/>
</svg>
